<?xml version="1.0" encoding="UTF-8" standalone="no"?>
<!-- Created with Inkscape (http://www.inkscape.org/) -->

<svg
   width="300mm"
   height="300mm"
   viewBox="0 0 300 300"
   version="1.1"
   id="svg85831"
   inkscape:version="1.2.1 (9c6d41e, 2022-07-14)"
   sodipodi:docname="bottom.svg"
   xmlns:inkscape="http://www.inkscape.org/namespaces/inkscape"
   xmlns:sodipodi="http://sodipodi.sourceforge.net/DTD/sodipodi-0.dtd"
   xmlns="http://www.w3.org/2000/svg"
   xmlns:svg="http://www.w3.org/2000/svg">
  <sodipodi:namedview
     id="namedview85833"
     pagecolor="#ffffff"
     bordercolor="#666666"
     borderopacity="1.0"
     inkscape:showpageshadow="2"
     inkscape:pageopacity="0.0"
     inkscape:pagecheckerboard="0"
     inkscape:deskcolor="#d1d1d1"
     inkscape:document-units="mm"
     showgrid="false"
     inkscape:zoom="0.89263468"
     inkscape:cx="398.25923"
     inkscape:cy="561.25984"
     inkscape:window-width="2552"
     inkscape:window-height="1383"
     inkscape:window-x="1920"
     inkscape:window-y="26"
     inkscape:window-maximized="1"
     inkscape:current-layer="layer1" />
  <defs
     id="defs85828" />
  <g
     inkscape:label="Layer 1"
     inkscape:groupmode="layer"
     id="layer1">
    <path
       d="m 24.207538,20.957543 a 1.5500001,1.5500001 0 0 1 3.1,0 1.5500001,1.5500001 0 0 1 -3.1,0"
       stroke="#ff0000"
       stroke-width="0.1"
       fill="none"
       id="path10589"
       style="display:inline" />
    <path
       d="m 24.207538,128.44247 a 1.5500001,1.5500001 0 0 1 3.1,0 1.5500001,1.5500001 0 0 1 -3.1,0"
       stroke="#ff0000"
       stroke-width="0.1"
       fill="none"
       id="path10591"
       style="display:inline" />
    <path
       d="m 104.2942,128.44247 a 1.55,1.55 0 0 1 3.1,0 1.55,1.55 0 0 1 -3.1,0"
       stroke="#ff0000"
       stroke-width="0.1"
       fill="none"
       id="path10593"
       style="display:inline" />
    <path
       d="m 189.56449,168.20466 a 1.5500006,1.5500006 0 0 1 3.09999,0 1.5500006,1.5500006 0 0 1 -3.09999,0"
       stroke="#ff0000"
       stroke-width="0.1"
       fill="none"
       id="path10595"
       style="display:inline" />
    <path
       d="m 216.85925,109.67084 a 1.550005,1.550005 0 0 1 3.10001,0 1.550005,1.550005 0 0 1 -3.10001,0"
       stroke="#ff0000"
       stroke-width="0.1"
       fill="none"
       id="path10597"
       style="display:inline" />
    <path
       d="m 216.85925,20.957543 a 1.550005,1.550005 0 0 1 3.10001,0 1.550005,1.550005 0 0 1 -3.10001,0"
       stroke="#ff0000"
       stroke-width="0.1"
       fill="none"
       id="path10599"
       style="display:inline" />
    <circle
       r="1.5500002"
       style="display:inline;fill:none;stroke:#ff0000;stroke-width:0.1;stroke-miterlimit:4;stroke-dasharray:none;stroke-opacity:1"
       id="path18590-36"
       cx="206.673"
       cy="51.632008" />
    <circle
       r="1.5500002"
       cy="59.252007"
       cx="206.673"
       id="path18590-3-0"
       style="display:inline;fill:none;stroke:#ff0000;stroke-width:0.1;stroke-miterlimit:4;stroke-dasharray:none;stroke-opacity:1" />
    <path
       id="path181784-1"
       fill="none"
       stroke-width="0.1"
       stroke="#ff0000"
       d="m 25.757537,17.45746 a 3.5000001,3.5000001 0 0 0 -3.5,3.5 v 107.48493 a 3.5000001,3.5000001 0 0 0 3.5,3.49999 h 78.534803 a 3.5000001,3.5000001 0 0 1 1.47916,0.32793 l 83.86383,39.10634 a 3.5000001,3.5000001 0 0 0 4.65124,-1.69291 l 27.29476,-58.53383 a 3.5000001,3.5000001 0 0 0 0.32793,-1.47916 V 20.95746 a 3.5000001,3.5000001 0 0 0 -3.49999,-3.5 H 25.757537"
       style="display:inline" />
  </g>
</svg>
