<?xml version="1.0" encoding="UTF-8" standalone="no"?>
<!-- Created with Inkscape (http://www.inkscape.org/) -->

<svg
   width="300mm"
   height="300mm"
   viewBox="0 0 300 300"
   version="1.1"
   id="svg1"
   sodipodi:docname="drawing.svg"
   inkscape:version="1.3 (0e150ed, 2023-07-21)"
   xmlns:inkscape="http://www.inkscape.org/namespaces/inkscape"
   xmlns:sodipodi="http://sodipodi.sourceforge.net/DTD/sodipodi-0.dtd"
   xmlns="http://www.w3.org/2000/svg"
   xmlns:svg="http://www.w3.org/2000/svg">
  <sodipodi:namedview
     id="namedview1"
     pagecolor="#ffffff"
     bordercolor="#666666"
     borderopacity="1.0"
     inkscape:showpageshadow="2"
     inkscape:pageopacity="0.0"
     inkscape:pagecheckerboard="0"
     inkscape:deskcolor="#d1d1d1"
     inkscape:document-units="mm"
     inkscape:zoom="1.5206466"
     inkscape:cx="491.23839"
     inkscape:cy="342.2886"
     inkscape:window-width="2552"
     inkscape:window-height="1383"
     inkscape:window-x="1920"
     inkscape:window-y="26"
     inkscape:window-maximized="1"
     inkscape:current-layer="g119898" />
  <defs
     id="defs1" />
  <g
     inkscape:label="Layer 1"
     inkscape:groupmode="layer"
     id="layer1">
    <g
       id="g119828"
       transform="matrix(0.00254,0,0,0.00254,-1.8396229e-5,-1.4348015e-4)"
       style="display:inline;fill:none;fill-opacity:1;stroke:#ff0000;stroke-width:39.3701;stroke-linecap:round;stroke-linejoin:round;stroke-miterlimit:4;stroke-dasharray:none;stroke-opacity:1" />
    <g
       id="g119830"
       style="display:inline;fill:none;fill-opacity:0;stroke:#ff0000;stroke-width:39.3701;stroke-linecap:round;stroke-linejoin:round;stroke-miterlimit:4;stroke-dasharray:none;stroke-opacity:1"
       transform="matrix(0.00254,0,0,0.00254,-1.8396229e-5,-1.4348015e-4)" />
    <g
       id="g119832"
       style="display:inline;fill:none;fill-opacity:0;stroke:#ff0000;stroke-width:39.3701;stroke-linecap:round;stroke-linejoin:round;stroke-miterlimit:4;stroke-dasharray:none;stroke-opacity:1"
       transform="matrix(0.00254,0,0,0.00254,-1.8396229e-5,-1.4348015e-4)" />
    <g
       id="g119898"
       style="display:inline;fill:none;fill-opacity:0;stroke:#ff0000;stroke-width:39.3701;stroke-linecap:round;stroke-linejoin:round;stroke-miterlimit:4;stroke-dasharray:none;stroke-opacity:1"
       transform="matrix(0.00254,0,0,0.00254,-1.8396229e-5,-1.4348015e-4)">
      <path
         id="path119872"
         d="M 41642.149,52074.502 74659.299,67471.1 c 331.528,154.544 710.543,171.079 1053.961,46.067 343.421,-125.016 623.11,-381.334 777.141,-712.866 L 87236.35,43759.399 c 85.378,-181.945 129.445,-380.701 129.051,-582.149 v -2261.748 c 0.394,-103.918 -41.078,-204.055 -114.913,-277.89 -73.831,-73.835 -173.972,-115.311 -278.437,-115.461 L 79885,40522.002 V 35404 l 7087.051,0.05 c 104.465,0.05 204.606,-41.429 278.437,-115.262 73.835,-73.833 115.311,-173.972 114.913,-278.588 v -6820.8 c 0.394,-104.016 -41.078,-204.155 -114.913,-277.988 -73.831,-73.833 -173.972,-115.312 -278.437,-115.362 L 85397,27796 v -3874 h -1575 v -4189 h 1575 v -3874 l 1575.051,0.05 c 104.465,0.05 204.606,-41.429 278.437,-115.262 73.835,-73.833 115.311,-173.972 114.913,-278.588 V 8250.4998 c 0.394,-364.9464 -144.771,-715.4256 -403.177,-973.8401 -258.401,-258.4142 -608.878,-403.5965 -974.775,-403.6347 H 10140.4 c -365.062,0.014 -715.5593,145.1862 -973.9837,403.6032 -258.4244,258.4169 -403.6063,608.9098 -404.0114,973.8716 V 50567.451 c 0.3917,365.921 145.5681,716.425 403.9937,974.854 258.426,258.429 608.9307,403.606 974.0014,403.146 h 30919.1 c 201.696,0.393 400.452,44.519 582.649,129.051 z"
         style="display:inline;fill:none;fill-opacity:0;stroke:#ff0000;stroke-width:39.3701;stroke-linecap:round;stroke-linejoin:round;stroke-miterlimit:4;stroke-dasharray:none;stroke-opacity:1"
         sodipodi:nodetypes="ccsccccsccccsccsccccccccsccsccsccsccc" />
      <path
         style="display:inline;stroke:#ff0000;stroke-width:39.3701;stroke-miterlimit:4;stroke-dasharray:none;stroke-opacity:1"
         id="path10589"
         fill="none"
         stroke-width="0.1"
         stroke="#ff0000"
         d="m 9530.534,8251.0577 a 610.23626,610.23626 0 0 1 1220.472,0 610.23626,610.23626 0 0 1 -1220.472,0" />
      <path
         style="display:inline;stroke:#ff0000;stroke-width:39.3701;stroke-miterlimit:4;stroke-dasharray:none;stroke-opacity:1"
         id="path10591"
         fill="none"
         stroke-width="0.1"
         stroke="#ff0000"
         d="m 9530.534,50567.962 a 610.23626,610.23626 0 0 1 1220.472,0 610.23626,610.23626 0 0 1 -1220.472,0" />
      <path
         style="display:inline;stroke:#ff0000;stroke-width:39.3701;stroke-miterlimit:4;stroke-dasharray:none;stroke-opacity:1"
         id="path10593"
         fill="none"
         stroke-width="0.1"
         stroke="#ff0000"
         d="m 41060.716,50567.962 a 610.2365,610.2365 0 0 1 1220.473,0 610.2365,610.2365 0 0 1 -1220.473,0" />
      <path
         style="display:inline;stroke:#ff0000;stroke-width:39.3701;stroke-miterlimit:4;stroke-dasharray:none;stroke-opacity:1"
         id="path10595"
         fill="none"
         stroke-width="0.1"
         stroke="#ff0000"
         d="m 74631.697,66222.364 a 610.23646,610.23646 0 0 1 1220.468,0 610.23646,610.23646 0 0 1 -1220.468,0" />
      <path
         style="display:inline;stroke:#ff0000;stroke-width:39.3701;stroke-miterlimit:4;stroke-dasharray:none;stroke-opacity:1"
         id="path10597"
         fill="none"
         stroke-width="0.1"
         stroke="#ff0000"
         d="m 85377.665,43177.553 a 610.2405,610.2405 0 0 1 1220.481,0 610.2405,610.2405 0 0 1 -1220.481,0" />
      <path
         style="display:inline;stroke:#ff0000;stroke-width:39.3701;stroke-miterlimit:4;stroke-dasharray:none;stroke-opacity:1"
         id="path10599"
         fill="none"
         stroke-width="0.1"
         stroke="#ff0000"
         d="m 85377.665,8251.0577 a 610.2405,610.2405 0 0 1 1220.481,0 610.2405,610.2405 0 0 1 -1220.481,0" />
      <path
         id="path119896"
         style="display:inline;fill:none;fill-opacity:0;stroke:#ff0000;stroke-width:39.3701;stroke-linecap:round;stroke-linejoin:round;stroke-miterlimit:4;stroke-dasharray:none;stroke-opacity:1"
         d="M 80266,12187.999 V 31467 H 69317 V 12187.999 Z"
         sodipodi:nodetypes="ccccc" />
    </g>
  </g>
</svg>
