<?xml version="1.0" encoding="UTF-8" standalone="no"?>
<!-- Created with Inkscape (http://www.inkscape.org/) -->

<svg
   width="300mm"
   height="300mm"
   viewBox="0 0 300 300"
   version="1.1"
   id="svg85831"
   inkscape:version="1.2.1 (9c6d41e, 2022-07-14)"
   sodipodi:docname="bottom-lp.svg"
   xmlns:inkscape="http://www.inkscape.org/namespaces/inkscape"
   xmlns:sodipodi="http://sodipodi.sourceforge.net/DTD/sodipodi-0.dtd"
   xmlns="http://www.w3.org/2000/svg"
   xmlns:svg="http://www.w3.org/2000/svg">
  <sodipodi:namedview
     id="namedview85833"
     pagecolor="#ffffff"
     bordercolor="#666666"
     borderopacity="1.0"
     inkscape:showpageshadow="2"
     inkscape:pageopacity="0.0"
     inkscape:pagecheckerboard="0"
     inkscape:deskcolor="#d1d1d1"
     inkscape:document-units="mm"
     showgrid="false"
     inkscape:zoom="0.89263468"
     inkscape:cx="398.81937"
     inkscape:cy="561.25984"
     inkscape:window-width="2552"
     inkscape:window-height="1383"
     inkscape:window-x="1920"
     inkscape:window-y="26"
     inkscape:window-maximized="1"
     inkscape:current-layer="layer1" />
  <defs
     id="defs85828" />
  <g
     inkscape:label="Layer 1"
     inkscape:groupmode="layer"
     id="layer1">
    <path
       d="m 24.207538,20.957543 a 1.5500001,1.5500001 0 0 1 3.1,0 1.5500001,1.5500001 0 0 1 -3.1,0"
       stroke="#ff0000"
       stroke-width="0.1"
       fill="none"
       id="path10589"
       style="display:inline;stroke:#ff0000;stroke-width:0.1;stroke-miterlimit:4;stroke-dasharray:none;stroke-opacity:1" />
    <path
       d="m 24.207538,128.44249 a 1.5500001,1.5500001 0 0 1 3.1,0 1.5500001,1.5500001 0 0 1 -3.1,0"
       stroke="#ff0000"
       stroke-width="0.1"
       fill="none"
       id="path10591"
       style="display:inline;stroke:#ff0000;stroke-width:0.1;stroke-miterlimit:4;stroke-dasharray:none;stroke-opacity:1" />
    <path
       d="m 104.2942,128.44249 a 1.5500006,1.5500006 0 0 1 3.1,0 1.5500006,1.5500006 0 0 1 -3.1,0"
       stroke="#ff0000"
       stroke-width="0.1"
       fill="none"
       id="path10593"
       style="display:inline;stroke:#ff0000;stroke-width:0.1;stroke-miterlimit:4;stroke-dasharray:none;stroke-opacity:1" />
    <path
       d="m 189.56449,168.20466 a 1.5500006,1.5500006 0 0 1 3.09999,0 1.5500006,1.5500006 0 0 1 -3.09999,0"
       stroke="#ff0000"
       stroke-width="0.1"
       fill="none"
       id="path10595"
       style="display:inline;stroke:#ff0000;stroke-width:0.1;stroke-miterlimit:4;stroke-dasharray:none;stroke-opacity:1" />
    <path
       d="m 216.85925,109.67084 a 1.55001,1.55001 0 0 1 3.10002,0 1.55001,1.55001 0 0 1 -3.10002,0"
       stroke="#ff0000"
       stroke-width="0.1"
       fill="none"
       id="path10597"
       style="display:inline;stroke:#ff0000;stroke-width:0.1;stroke-miterlimit:4;stroke-dasharray:none;stroke-opacity:1" />
    <path
       d="m 216.85925,20.957543 a 1.55001,1.55001 0 0 1 3.10002,0 1.55001,1.55001 0 0 1 -3.10002,0"
       stroke="#ff0000"
       stroke-width="0.1"
       fill="none"
       id="path10599"
       style="display:inline;stroke:#ff0000;stroke-width:0.1;stroke-miterlimit:4;stroke-dasharray:none;stroke-opacity:1" />
    <g
       style="display:inline;fill:none;fill-opacity:1;stroke:#ff0000;stroke-width:39.3701;stroke-linecap:round;stroke-linejoin:round;stroke-miterlimit:4;stroke-dasharray:none;stroke-opacity:1"
       transform="matrix(0.00254,0,0,0.00254,-1.8396229e-5,-1.4348015e-4)"
       id="g119828" />
    <g
       transform="matrix(0.00254,0,0,0.00254,-1.8396229e-5,-1.4348015e-4)"
       style="display:inline;fill:none;fill-opacity:0;stroke:#ff0000;stroke-width:39.3701;stroke-linecap:round;stroke-linejoin:round;stroke-miterlimit:4;stroke-dasharray:none;stroke-opacity:1"
       id="g119830" />
    <g
       transform="matrix(0.00254,0,0,0.00254,-1.8396229e-5,-1.4348015e-4)"
       style="display:inline;fill:none;fill-opacity:0;stroke:#ff0000;stroke-width:39.3701;stroke-linecap:round;stroke-linejoin:round;stroke-miterlimit:4;stroke-dasharray:none;stroke-opacity:1"
       id="g119832" />
    <g
       transform="matrix(0.00254,0,0,0.00254,-1.8396229e-5,-1.4348015e-4)"
       style="display:inline;fill:none;fill-opacity:0;stroke:#ff0000;stroke-width:39.3701;stroke-linecap:round;stroke-linejoin:round;stroke-miterlimit:4;stroke-dasharray:none;stroke-opacity:1"
       id="g119898">
      <path
         style="fill:none;stroke:#ff0000;stroke-width:39.3701;stroke-miterlimit:4;stroke-dasharray:none;stroke-opacity:1"
         d="m 87365.8,40916 a 393.701,393.701 0 0 0 -393.7,-393.7"
         id="path119834" />
      <path
         style="fill:none;stroke:#ff0000;stroke-width:39.3701;stroke-miterlimit:4;stroke-dasharray:none;stroke-opacity:1"
         d="m 86972.1,35404.1 a 393.701,393.701 0 0 0 393.7,-393.7"
         id="path119836" />
      <path
         style="fill:none;stroke:#ff0000;stroke-width:39.3701;stroke-miterlimit:4;stroke-dasharray:none;stroke-opacity:1"
         d="m 79885,40522 h 7087"
         id="path119838" />
      <path
         style="fill:none;stroke:#ff0000;stroke-width:39.3701;stroke-miterlimit:4;stroke-dasharray:none;stroke-opacity:1"
         d="m 79885,35404 h 7087"
         id="path119840" />
      <path
         style="fill:none;stroke:#ff0000;stroke-width:39.3701;stroke-miterlimit:4;stroke-dasharray:none;stroke-opacity:1"
         d="M 87365,35010 V 28189"
         id="path119842" />
      <path
         style="fill:none;stroke:#ff0000;stroke-width:39.3701;stroke-miterlimit:4;stroke-dasharray:none;stroke-opacity:1"
         d="M 79885,40522 V 35404"
         id="path119844" />
      <path
         style="fill:none;stroke:#ff0000;stroke-width:39.3701;stroke-miterlimit:4;stroke-dasharray:none;stroke-opacity:1"
         d="m 87365.8,28189.8 a 393.701,393.701 0 0 0 -393.7,-393.7"
         id="path119846" />
      <path
         style="fill:none;stroke:#ff0000;stroke-width:39.3701;stroke-miterlimit:4;stroke-dasharray:none;stroke-opacity:1"
         d="m 86972.1,15859.1 a 393.701,393.701 0 0 0 393.7,-393.7"
         id="path119848" />
      <path
         style="fill:none;stroke:#ff0000;stroke-width:39.3701;stroke-miterlimit:4;stroke-dasharray:none;stroke-opacity:1"
         d="m 85397,27796 h 1575"
         id="path119850" />
      <path
         style="fill:none;stroke:#ff0000;stroke-width:39.3701;stroke-miterlimit:4;stroke-dasharray:none;stroke-opacity:1"
         d="m 85397,15859 h 1575"
         id="path119852" />
      <path
         style="fill:none;stroke:#ff0000;stroke-width:39.3701;stroke-miterlimit:4;stroke-dasharray:none;stroke-opacity:1"
         d="M 85397,19733 H 83822"
         id="path119854" />
      <path
         style="fill:none;stroke:#ff0000;stroke-width:39.3701;stroke-miterlimit:4;stroke-dasharray:none;stroke-opacity:1"
         d="M 85397,23922 H 83822"
         id="path119856" />
      <path
         style="fill:none;stroke:#ff0000;stroke-width:39.3701;stroke-miterlimit:4;stroke-dasharray:none;stroke-opacity:1"
         d="M 85397,19733 V 15859"
         id="path119858" />
      <path
         style="fill:none;stroke:#ff0000;stroke-width:39.3701;stroke-miterlimit:4;stroke-dasharray:none;stroke-opacity:1"
         d="M 85397,27796 V 23922"
         id="path119860" />
      <path
         style="fill:none;stroke:#ff0000;stroke-width:39.3701;stroke-miterlimit:4;stroke-dasharray:none;stroke-opacity:1"
         d="M 87365,43177 V 40915"
         id="path119862" />
      <path
         style="fill:none;stroke:#ff0000;stroke-width:39.3701;stroke-miterlimit:4;stroke-dasharray:none;stroke-opacity:1"
         d="M 87365,15465 V 8250"
         id="path119864" />
      <path
         style="fill:none;stroke:#ff0000;stroke-width:39.3701;stroke-miterlimit:4;stroke-dasharray:none;stroke-opacity:1"
         d="M 10140.8,6873.05 A 1377.95,1377.95 0 0 0 8762.81,8251"
         id="path119866" />
      <path
         style="fill:none;stroke:#ff0000;stroke-width:39.3701;stroke-miterlimit:4;stroke-dasharray:none;stroke-opacity:1"
         d="m 8762.81,50567.9 a 1377.95,1377.95 0 0 0 1377.99,1378"
         id="path119868" />
      <path
         style="fill:none;stroke:#ff0000;stroke-width:39.3701;stroke-miterlimit:4;stroke-dasharray:none;stroke-opacity:1"
         d="M 10140,51945 H 41059"
         id="path119870" />
      <path
         style="fill:none;stroke:#ff0000;stroke-width:39.3701;stroke-miterlimit:4;stroke-dasharray:none;stroke-opacity:1"
         d="M 41642.3,52075 A 1377.95,1377.95 0 0 0 41060,51945.9"
         id="path119872" />
      <path
         style="fill:none;stroke:#ff0000;stroke-width:39.3701;stroke-miterlimit:4;stroke-dasharray:none;stroke-opacity:1"
         d="M 41642,52074 74659,67471"
         id="path119874" />
      <path
         style="fill:none;stroke:#ff0000;stroke-width:39.3701;stroke-miterlimit:4;stroke-dasharray:none;stroke-opacity:1"
         d="m 74659.6,67471.2 a 1377.95,1377.95 0 0 0 1831.2,-666.6"
         id="path119876" />
      <path
         style="fill:none;stroke:#ff0000;stroke-width:39.3701;stroke-miterlimit:4;stroke-dasharray:none;stroke-opacity:1"
         d="M 76490,66804 87236,43759"
         id="path119878" />
      <path
         style="fill:none;stroke:#ff0000;stroke-width:39.3701;stroke-miterlimit:4;stroke-dasharray:none;stroke-opacity:1"
         d="m 87236.7,43759.8 a 1377.95,1377.95 0 0 0 129.1,-582.3"
         id="path119880" />
      <path
         style="fill:none;stroke:#ff0000;stroke-width:39.3701;stroke-miterlimit:4;stroke-dasharray:none;stroke-opacity:1"
         d="M 83822,23922 V 19733"
         id="path119882" />
      <path
         style="fill:none;stroke:#ff0000;stroke-width:39.3701;stroke-miterlimit:4;stroke-dasharray:none;stroke-opacity:1"
         d="M 87365.8,8251 A 1377.95,1377.95 0 0 0 85987.9,6873.05"
         id="path119884" />
      <path
         style="fill:none;stroke:#ff0000;stroke-width:39.3701;stroke-miterlimit:4;stroke-dasharray:none;stroke-opacity:1"
         d="M 85987,6873 H 10140"
         id="path119886" />
      <path
         style="fill:none;stroke:#ff0000;stroke-width:39.3701;stroke-miterlimit:4;stroke-dasharray:none;stroke-opacity:1"
         d="M 8762,8250 V 50567"
         id="path119888" />
      <path
         style="fill:none;stroke:#ff0000;stroke-width:39.3701;stroke-miterlimit:4;stroke-dasharray:none;stroke-opacity:1"
         d="M 69317,31467 V 12188"
         id="path119890" />
      <path
         style="fill:none;stroke:#ff0000;stroke-width:39.3701;stroke-miterlimit:4;stroke-dasharray:none;stroke-opacity:1"
         d="M 80266,31467 H 69317"
         id="path119892" />
      <path
         style="fill:none;stroke:#ff0000;stroke-width:39.3701;stroke-miterlimit:4;stroke-dasharray:none;stroke-opacity:1"
         d="M 80266,12188 V 31467"
         id="path119894" />
      <path
         style="fill:none;stroke:#ff0000;stroke-width:39.3701;stroke-miterlimit:4;stroke-dasharray:none;stroke-opacity:1"
         d="M 69317,12188 H 80266"
         id="path119896" />
    </g>
  </g>
</svg>
