<?xml version="1.0" encoding="UTF-8" standalone="no"?>
<svg
   sodipodi:docname="fullhand-plate.svg"
   inkscape:version="1.3 (0e150ed, 2023-07-21)"
   id="svg48726"
   version="1.1"
   viewBox="0 0 300 300"
   height="300mm"
   width="300mm"
   xmlns:inkscape="http://www.inkscape.org/namespaces/inkscape"
   xmlns:sodipodi="http://sodipodi.sourceforge.net/DTD/sodipodi-0.dtd"
   xmlns="http://www.w3.org/2000/svg"
   xmlns:svg="http://www.w3.org/2000/svg"
   xmlns:rdf="http://www.w3.org/1999/02/22-rdf-syntax-ns#"
   xmlns:cc="http://creativecommons.org/ns#"
   xmlns:dc="http://purl.org/dc/elements/1.1/">
  <defs
     id="defs48720" />
  <sodipodi:namedview
     inkscape:window-maximized="1"
     inkscape:window-y="26"
     inkscape:window-x="1920"
     inkscape:window-height="1383"
     inkscape:window-width="2552"
     showgrid="false"
     inkscape:document-rotation="0"
     inkscape:current-layer="layer1"
     inkscape:document-units="mm"
     inkscape:cy="673.57143"
     inkscape:cx="-282.14286"
     inkscape:zoom="0.7"
     inkscape:pageshadow="2"
     inkscape:pageopacity="0.0"
     borderopacity="1.0"
     bordercolor="#666666"
     pagecolor="#ffffff"
     id="base"
     inkscape:showpageshadow="2"
     inkscape:pagecheckerboard="0"
     inkscape:deskcolor="#d1d1d1" />
  <metadata
     id="metadata48723">
    <rdf:RDF>
      <cc:Work
         rdf:about="">
        <dc:format>image/svg+xml</dc:format>
        <dc:type
           rdf:resource="http://purl.org/dc/dcmitype/StillImage" />
      </cc:Work>
    </rdf:RDF>
  </metadata>
  <g
     id="layer1"
     inkscape:groupmode="layer"
     inkscape:label="Layer 1">
    <path
       style="display:inline;fill:none;fill-rule:evenodd;stroke:#ff0000;stroke-width:0.1;stroke-miterlimit:4;stroke-dasharray:none;stroke-opacity:1"
       stroke-width="0.35 px"
       stroke="#191919"
       d="m 25.756,17.456999 a 3.4999999,3.4999999 0 0 0 -3.5,3.5 V 226.87771 a 3.4999999,3.4999999 0 0 0 2.68354,3.40348 l 124.11269,29.77361 a 3.4999999,3.4999999 0 0 0 3.98821,-1.92421 l 68.53907,-146.98035 a 3.4999999,3.4999999 0 0 0 0.32793,-1.47914 V 20.956999 a 3.4999999,3.4999999 0 0 0 -3.5,-3.5 H 25.756"
       id="Cut_cs_w0000-6" />
    <path
       id="path47680"
       style="display:inline;fill:none;stroke:#ff0000;stroke-width:0.1;stroke-miterlimit:4;stroke-dasharray:none;stroke-opacity:1"
       stroke-width="0.35 px"
       stroke="#191919"
       d="m 27.35644,135.446 v 0" />
    <path
       id="path47686"
       style="display:inline;fill:none;stroke:#ff0000;stroke-width:0.1;stroke-miterlimit:4;stroke-dasharray:none;stroke-opacity:1"
       stroke-width="0.35 px"
       stroke="#191919"
       d="m 192.71644,168.206 v 0" />
    <path
       id="path47692"
       style="display:inline;fill:none;stroke:#ff0000;stroke-width:0.1;stroke-miterlimit:4;stroke-dasharray:none;stroke-opacity:1"
       stroke-width="0.35 px"
       stroke="#191919"
       d="m 189.75644,174.546 v 0" />
    <path
       id="path47696"
       style="display:inline;fill:none;stroke:#ff0000;stroke-width:0.1;stroke-miterlimit:4;stroke-dasharray:none;stroke-opacity:1"
       stroke-width="0.35 px"
       stroke="#191919"
       d="m 27.35644,226.87599 v 0" />
    <path
       id="path47698"
       style="display:inline;fill:none;stroke:#ff0000;stroke-width:0.1;stroke-miterlimit:4;stroke-dasharray:none;stroke-opacity:1"
       stroke-width="0.35 px"
       stroke="#191919"
       d="m 107.44644,128.446 v 0" />
    <path
       id="path47702"
       style="display:inline;fill:none;stroke:#ff0000;stroke-width:0.1;stroke-miterlimit:4;stroke-dasharray:none;stroke-opacity:1"
       stroke-width="0.35 px"
       stroke="#191919"
       d="m 27.35644,20.955998 v 0" />
    <path
       id="path47706"
       style="display:inline;fill:none;stroke:#ff0000;stroke-width:0.1;stroke-miterlimit:4;stroke-dasharray:none;stroke-opacity:1"
       stroke-width="0.35 px"
       stroke="#191919"
       d="m 151.46644,256.65598 v 0" />
    <path
       style="display:inline;fill:none;fill-rule:evenodd;stroke:#ff0000;stroke-width:0.1;stroke-miterlimit:4;stroke-dasharray:none;stroke-opacity:1"
       stroke-width="0.35 px"
       stroke="#191919"
       d="m 214.12763,107.67536 a 4.9999998,4.9999998 0 1 1 -8.37419,-3.90486 l -8.517,-3.971502 V 20.956999 h 19.57 a 1.6000003,1.6000003 0 1 1 3.2,-0.001 1.6,1.6 0 0 1 -1.598,1.6 v 85.520021 a 1.6,1.6 0 0 1 1.598,1.6 1.6,1.6 0 1 1 -3.048,-0.6806 l -2.83081,-1.32004"
       id="Cut_cs_w0016" />
    <path
       id="path47709"
       style="display:inline;fill:none;stroke:#ff0000;stroke-width:0.1;stroke-miterlimit:4;stroke-dasharray:none;stroke-opacity:1"
       stroke-width="0.35 px"
       stroke="#191919"
       d="m 27.35644,128.446 v 0" />
    <circle
       r="0.0093450779"
       cy="67.735123"
       cx="241.56276"
       style="display:inline;fill:#000000;stroke:#ff0000;stroke-width:0.264583;stroke-opacity:1"
       id="path46979-0" />
    <circle
       r="0.0093450779"
       cy="51.587246"
       cx="258.06174"
       style="display:inline;fill:#000000;stroke:#ff0000;stroke-width:0.264583;stroke-opacity:1"
       id="path46981-6" />
    <path
       d="m 27.475052,27.677488 a 5.0000001,5.0000001 0 0 1 10,0 5.0000001,5.0000001 0 0 1 -10,0"
       stroke="#ff0000"
       stroke-width="0.1"
       fill="none"
       id="path11644-6-3-2"
       style="display:inline;stroke:#ff0000;stroke-width:0.1;stroke-miterlimit:4;stroke-dasharray:none;stroke-opacity:1" />
    <path
       d="m 27.475052,121.72739 a 5.0000001,5.0000001 0 0 1 10,0 5.0000001,5.0000001 0 0 1 -10,0"
       stroke="#ff0000"
       stroke-width="0.1"
       fill="none"
       id="path11646-2-6-6"
       style="display:inline;stroke:#ff0000;stroke-width:0.1;stroke-miterlimit:4;stroke-dasharray:none;stroke-opacity:1" />
    <path
       d="m 182.86529,159.28001 a 5.0000006,5.0000006 0 0 1 10,0 5.0000006,5.0000006 0 0 1 -10,0"
       stroke="#ff0000"
       stroke-width="0.1"
       fill="none"
       id="path11648-9-7-1"
       style="display:inline;stroke:#ff0000;stroke-width:0.1;stroke-miterlimit:4;stroke-dasharray:none;stroke-opacity:1" />
    <path
       d="m 102.90038,119.16886 a 5.0000001,5.0000001 0 0 1 10,0 5.0000001,5.0000001 0 0 1 -10,0"
       stroke="#ff0000"
       stroke-width="0.1"
       fill="none"
       id="path12415-7-3-8"
       style="display:inline;stroke:#ff0000;stroke-width:0.1;stroke-miterlimit:4;stroke-dasharray:none;stroke-opacity:1" />
    <path
       style="display:inline;stroke:#ff0000;stroke-opacity:1"
       id="path47030-5-7"
       fill="none"
       stroke-width="0.1"
       stroke="#ff0000"
       d="m 28.217527,220.99601 a 5.0000001,5.0000001 0 0 1 10,0 5.0000001,5.0000001 0 0 1 -10,0" />
    <path
       style="display:inline;stroke:#ff0000;stroke-opacity:1"
       id="path47032-6-9"
       fill="none"
       stroke-width="0.1"
       stroke="#ff0000"
       d="m 27.475052,142.15998 a 5.0000001,5.0000001 0 0 1 10,0 5.0000001,5.0000001 0 0 1 -10,0" />
    <path
       style="display:inline;stroke:#ff0000;stroke-opacity:1"
       id="path47034-2-2"
       fill="none"
       stroke-width="0.1"
       stroke="#ff0000"
       d="m 174.22907,177.79799 a 5.0000001,5.0000001 0 0 1 10,0 5.0000001,5.0000001 0 0 1 -10,0" />
    <path
       style="display:inline;stroke:#ff0000;stroke-opacity:1"
       id="path47036-9-0"
       fill="none"
       stroke-width="0.1"
       stroke="#ff0000"
       d="m 140.74291,248.09552 a 5.0000006,5.0000006 0 0 1 10,0 5.0000006,5.0000006 0 0 1 -10,0" />
    <path
       id="path42246-2"
       fill="none"
       stroke-width="0.1"
       stroke="#ff0000"
       d="m 24.257538,226.8798 a 1.5,1.5 0 0 1 3,0 1.5,1.5 0 0 1 -3,0"
       style="display:inline;stroke:#ff0000;stroke-opacity:1" />
    <path
       id="path42248-3"
       fill="none"
       stroke-width="0.1"
       stroke="#ff0000"
       d="m 24.257538,135.44419 a 1.5,1.5 0 0 1 3,0 1.5,1.5 0 0 1 -3,0"
       style="display:inline;stroke:#ff0000;stroke-opacity:1" />
    <path
       id="path42250-7"
       fill="none"
       stroke-width="0.1"
       stroke="#ff0000"
       d="m 186.65615,174.55053 a 1.500001,1.500001 0 0 1 3,0 1.500001,1.500001 0 0 1 -3,0"
       style="display:inline;stroke:#ff0000;stroke-opacity:1" />
    <path
       id="path42252-5"
       fill="none"
       stroke-width="0.1"
       stroke="#ff0000"
       d="m 148.3709,256.65351 a 1.500001,1.500001 0 0 1 3,0 1.500001,1.500001 0 0 1 -3,0"
       style="display:inline;stroke:#ff0000;stroke-opacity:1" />
    <path
       id="path10589-9"
       fill="none"
       stroke-width="0.1"
       stroke="#ff0000"
       d="m 24.207538,20.95754 a 1.5500001,1.5500001 0 0 1 3.1,0 1.5500001,1.5500001 0 0 1 -3.1,0"
       style="display:inline;stroke:#ff0000;stroke-opacity:1" />
    <path
       id="path10591-2"
       fill="none"
       stroke-width="0.1"
       stroke="#ff0000"
       d="m 24.207538,128.44247 a 1.5500001,1.5500001 0 0 1 3.1,0 1.5500001,1.5500001 0 0 1 -3.1,0"
       style="display:inline;stroke:#ff0000;stroke-opacity:1" />
    <path
       id="path10593-2"
       fill="none"
       stroke-width="0.1"
       stroke="#ff0000"
       d="m 104.2942,128.44247 a 1.55,1.55 0 0 1 3.1,0 1.55,1.55 0 0 1 -3.1,0"
       style="display:inline;stroke:#ff0000;stroke-opacity:1" />
    <path
       id="path10595-8"
       fill="none"
       stroke-width="0.1"
       stroke="#ff0000"
       d="m 189.56449,168.20466 a 1.5500006,1.5500006 0 0 1 3.09999,0 1.5500006,1.5500006 0 0 1 -3.09999,0"
       style="display:inline;stroke:#ff0000;stroke-opacity:1" />
  </g>
</svg>
