<?xml version="1.0" encoding="UTF-8" standalone="no"?>
<!-- Created with Inkscape (http://www.inkscape.org/) -->

<svg
   width="300mm"
   height="300mm"
   viewBox="0 0 300 300"
   version="1.1"
   id="svg224129"
   inkscape:version="1.2.1 (9c6d41e, 2022-07-14)"
   sodipodi:docname="bottom-mx-lite.svg"
   xmlns:inkscape="http://www.inkscape.org/namespaces/inkscape"
   xmlns:sodipodi="http://sodipodi.sourceforge.net/DTD/sodipodi-0.dtd"
   xmlns="http://www.w3.org/2000/svg"
   xmlns:svg="http://www.w3.org/2000/svg">
  <sodipodi:namedview
     id="namedview224131"
     pagecolor="#ffffff"
     bordercolor="#666666"
     borderopacity="1.0"
     inkscape:showpageshadow="2"
     inkscape:pageopacity="0.0"
     inkscape:pagecheckerboard="0"
     inkscape:deskcolor="#d1d1d1"
     inkscape:document-units="mm"
     showgrid="false"
     inkscape:zoom="0.91579686"
     inkscape:cx="276.80811"
     inkscape:cy="228.21655"
     inkscape:window-width="2552"
     inkscape:window-height="1383"
     inkscape:window-x="1920"
     inkscape:window-y="26"
     inkscape:window-maximized="1"
     inkscape:current-layer="layer3" />
  <defs
     id="defs224126" />
  <g
     inkscape:label="Layer 1"
     inkscape:groupmode="layer"
     id="layer1">
    <g
       inkscape:groupmode="layer"
       id="layer3"
       inkscape:label="outside-lite"
       style="display:inline">
      <g
         id="Cut001_cs-3"
         transform="matrix(1,0,0,-1,13.20844,180.917)"
         style="stroke-width:0.1;stroke-dasharray:none;stroke:#ff0000;stroke-opacity:1">
        <path
           id="Cut001_cs_w0000-6"
           d="M 176.42791,9.5393079 A 3.5,3.5 0 0 1 181.079,11.2323 l 27.29409,58.533278 A 3.5,3.5 0 0 1 208.701,71.2447 V 118.97 h -2.5 V 74.22672 A 3.15,3.15 0 1 1 204.843,68.1103 L 180.07631,14.996833 A 3.15,3.15 0 0 1 174.78,13.0663 L 94.926179,50.303001 A 3.15,3.15 0 0 1 95.79,52.47 3.15,3.15 0 1 1 89.6517,51.4738 H 15.538325 A 3.15,3.15 0 0 1 15.7,52.47 3.15,3.15 0 0 1 11.5493,55.4568 V 156.97318 A 3.15,3.15 0 0 1 15.7,159.96 a 3.15,3.15 0 0 1 -0.1626,0.999 h 186.67521 a 3.15,3.15 0 0 1 3.98839,-3.986 V 131.97 h 2.5 v 27.989 a 3.5,3.5 0 0 1 -3.5,3.5 H 12.54956 a 3.5,3.5 0 0 1 -3.5,-3.5 V 52.4726 a 3.5,3.5 0 0 1 3.50004,-3.5 H 91.08568 A 3.5,3.5 0 0 0 92.5648,48.6447 L 176.42791,9.5393079"
           stroke="#191919"
           stroke-width="0.35 px"
           style="fill:none;fill-opacity:1;fill-rule:evenodd;stroke-width:0.1;stroke-linecap:square;stroke-miterlimit:4;stroke-dasharray:none;stroke:#ff0000;stroke-opacity:1" />
        <circle
           cx="12.55"
           cy="52.470001"
           r="1.75"
           stroke="#191919"
           stroke-width="0.35 px"
           style="fill:none;stroke-width:0.1;stroke-linecap:square;stroke-miterlimit:4;stroke-dasharray:none;stroke:#ff0000;stroke-opacity:1"
           id="circle182002" />
        <circle
           cx="92.639999"
           cy="52.470001"
           r="1.75"
           stroke="#191919"
           stroke-width="0.35 px"
           style="fill:none;stroke-width:0.1;stroke-linecap:square;stroke-miterlimit:4;stroke-dasharray:none;stroke:#ff0000;stroke-opacity:1"
           id="circle182004" />
        <circle
           cx="177.91"
           cy="12.71"
           r="1.75"
           stroke="#191919"
           stroke-width="0.35 px"
           style="fill:none;stroke-width:0.1;stroke-linecap:square;stroke-miterlimit:4;stroke-dasharray:none;stroke:#ff0000;stroke-opacity:1"
           id="circle182006" />
        <circle
           cx="205.2"
           cy="71.239998"
           r="1.75"
           stroke="#191919"
           stroke-width="0.35 px"
           style="fill:none;stroke-width:0.1;stroke-linecap:square;stroke-miterlimit:4;stroke-dasharray:none;stroke:#ff0000;stroke-opacity:1"
           id="circle182008" />
        <circle
           cx="12.55"
           cy="159.96001"
           r="1.75"
           stroke="#191919"
           stroke-width="0.35 px"
           style="fill:none;stroke-width:0.1;stroke-linecap:square;stroke-miterlimit:4;stroke-dasharray:none;stroke:#ff0000;stroke-opacity:1"
           id="circle182010" />
        <circle
           cx="205.2"
           cy="159.96001"
           r="1.75"
           stroke="#191919"
           stroke-width="0.35 px"
           style="fill:none;stroke-width:0.1;stroke-linecap:square;stroke-miterlimit:4;stroke-dasharray:none;stroke:#ff0000;stroke-opacity:1"
           id="circle182012" />
        <title
           id="title182014">b'Cut001_cs'</title>
      </g>
    </g>
  </g>
</svg>
