<?xml version="1.0" encoding="UTF-8" standalone="no"?>
<svg
   width="300mm"
   height="300mm"
   viewBox="0 0 300 300.00001"
   version="1.1"
   id="svg17"
   sodipodi:docname="full-95.svg"
   inkscape:version="1.3 (0e150ed, 2023-07-21)"
   xmlns:inkscape="http://www.inkscape.org/namespaces/inkscape"
   xmlns:sodipodi="http://sodipodi.sourceforge.net/DTD/sodipodi-0.dtd"
   xmlns="http://www.w3.org/2000/svg"
   xmlns:svg="http://www.w3.org/2000/svg">
  <defs
     id="defs17" />
  <sodipodi:namedview
     id="namedview17"
     pagecolor="#ffffff"
     bordercolor="#666666"
     borderopacity="1.0"
     inkscape:showpageshadow="2"
     inkscape:pageopacity="0.0"
     inkscape:pagecheckerboard="0"
     inkscape:deskcolor="#d1d1d1"
     inkscape:document-units="mm"
     inkscape:zoom="0.90404458"
     inkscape:cx="223.44031"
     inkscape:cy="623.30997"
     inkscape:window-width="2552"
     inkscape:window-height="1383"
     inkscape:window-x="1920"
     inkscape:window-y="26"
     inkscape:window-maximized="1"
     inkscape:current-layer="layer5" />
  <g
     inkscape:groupmode="layer"
     id="layer5"
     inkscape:label="Layer 1">
    <g
       id="Cut003_cs"
       transform="matrix(1,0,0,-1,13.207295,180.91699)"
       style="stroke-width:0.1;stroke-dasharray:none">
      <path
         id="Cut003_cs_w0000-6"
         d="M 10.581679,156.827 C 9.9609485,157.25926 9.0138909,156.73581 9.0497,155.98024 V 57.17 a 1,1 0 0 1 1,-1 H 12.55 a 3.7,3.7 0 0 0 0,-7.4 h -2.5003 a 1,1 0 0 1 -1,-1 V -45.961722 A 3.5,3.5 0 0 1 11.7332,-49.3652 L 147.75478,-81.995648 A 3.5,3.5 0 0 1 151.743,-80.0714 L 220.37407,67.106764 A 3.5,3.5 0 0 1 220.702,68.5859 v 91.3731 a 3.5,3.5 0 0 1 -3.5,3.5 H 209.9 a 1,1 0 0 1 -1,-1 v -2.499 a 3.7,3.7 0 0 0 -3.698,-3.7 V 91.984685 h 3.49571 c 0.4957,0.04397 1.04397,-0.504296 1,-1 V 78.234919 c 0.044,-0.495704 -0.5043,-1.043973 -1,-1 H 205.202 v -2.29492 A 3.7,3.7 0 0 0 208.9,71.24 a 3.7,3.7 0 1 0 -7.051,1.5681 l -0.92781,0.432543 A 5,5 0 1 0 192.547,77.1455 l -8.517,3.9715 v 78.842 h 17.47 a 3.7,3.7 0 0 0 0,0.001 v 2.499 a 1,1 0 0 1 -1,1 H 16.530578 c -0.755418,0.0358 -1.27891,-0.91093 -0.846932,-1.5317 A 3.7,3.7 0 0 0 10.5817,156.827"
         stroke="#191919"
         stroke-width="0.35 px"
         style="fill:none;fill-opacity:1;fill-rule:evenodd;stroke-width:0.1;stroke-linecap:square;stroke-miterlimit:4;stroke-dasharray:none" />
      <circle
         cx="12.55"
         cy="-45.959999"
         r="1.6"
         stroke="#191919"
         stroke-width="0.35 px"
         style="fill:none;stroke-width:0.1;stroke-linecap:square;stroke-miterlimit:4;stroke-dasharray:none"
         id="circle1-2" />
      <circle
         cx="20.01"
         cy="-40.080002"
         r="5"
         stroke="#191919"
         stroke-width="0.35 px"
         style="fill:none;stroke-width:0.1;stroke-linecap:square;stroke-miterlimit:4;stroke-dasharray:none"
         id="circle2-6" />
      <circle
         cx="19.27"
         cy="38.75"
         r="5"
         stroke="#191919"
         stroke-width="0.35 px"
         style="fill:none;stroke-width:0.1;stroke-linecap:square;stroke-miterlimit:4;stroke-dasharray:none"
         id="circle3-1" />
      <circle
         cx="136.66"
         cy="-75.739998"
         r="1.6"
         stroke="#191919"
         stroke-width="0.35 px"
         style="fill:none;stroke-width:0.1;stroke-linecap:square;stroke-miterlimit:4;stroke-dasharray:none"
         id="circle4-8" />
      <circle
         cx="132.53999"
         cy="-67.18"
         r="5"
         stroke="#191919"
         stroke-width="0.35 px"
         style="fill:none;stroke-width:0.1;stroke-linecap:square;stroke-miterlimit:4;stroke-dasharray:none"
         id="circle5-7" />
      <circle
         cx="147.166"
         cy="-75.529999"
         r="3.25"
         stroke="#191919"
         stroke-width="0.35 px"
         style="fill:none;stroke-width:0.1;stroke-linecap:square;stroke-miterlimit:4;stroke-dasharray:none"
         id="circle6-9" />
      <circle
         cx="166.02"
         cy="3.1199999"
         r="5"
         stroke="#191919"
         stroke-width="0.35 px"
         style="fill:none;stroke-width:0.1;stroke-linecap:square;stroke-miterlimit:4;stroke-dasharray:none"
         id="circle7-2" />
      <circle
         cx="174.95"
         cy="6.3699999"
         r="1.6"
         stroke="#191919"
         stroke-width="0.35 px"
         style="fill:none;stroke-width:0.1;stroke-linecap:square;stroke-miterlimit:4;stroke-dasharray:none"
         id="circle8" />
      <circle
         cx="177.91"
         cy="12.71"
         r="3.7"
         stroke="#191919"
         stroke-width="0.35 px"
         style="fill:none;stroke-width:0.1;stroke-linecap:square;stroke-miterlimit:4;stroke-dasharray:none"
         id="circle9" />
      <circle
         cx="174.65601"
         cy="21.790001"
         r="5"
         stroke="#191919"
         stroke-width="0.35 px"
         style="fill:none;stroke-width:0.1;stroke-linecap:square;stroke-miterlimit:4;stroke-dasharray:none"
         id="circle10" />
      <circle
         cx="12.55"
         cy="45.470001"
         r="1.6"
         stroke="#191919"
         stroke-width="0.35 px"
         style="fill:none;stroke-width:0.1;stroke-linecap:square;stroke-miterlimit:4;stroke-dasharray:none"
         id="circle11" />
      <circle
         cx="19.266001"
         cy="59.349998"
         r="5"
         stroke="#191919"
         stroke-width="0.35 px"
         style="fill:none;stroke-width:0.1;stroke-linecap:square;stroke-miterlimit:4;stroke-dasharray:none"
         id="circle12" />
      <circle
         cx="92.639999"
         cy="52.470001"
         r="3.7"
         stroke="#191919"
         stroke-width="0.35 px"
         style="fill:none;stroke-width:0.1;stroke-linecap:square;stroke-miterlimit:4;stroke-dasharray:none"
         id="circle13" />
      <circle
         cx="94.695999"
         cy="61.900002"
         r="5"
         stroke="#191919"
         stroke-width="0.35 px"
         style="fill:none;stroke-width:0.1;stroke-linecap:square;stroke-miterlimit:4;stroke-dasharray:none"
         id="circle14" />
      <circle
         cx="19.266001"
         cy="153.39999"
         r="5"
         stroke="#191919"
         stroke-width="0.35 px"
         style="fill:none;stroke-width:0.1;stroke-linecap:square;stroke-miterlimit:4;stroke-dasharray:none"
         id="circle15" />
      <circle
         cx="214.70599"
         cy="69.290001"
         r="3.25"
         stroke="#191919"
         stroke-width="0.35 px"
         style="fill:none;stroke-width:0.1;stroke-linecap:square;stroke-miterlimit:4;stroke-dasharray:none"
         id="circle16" />
      <circle
         cx="214.70599"
         cy="157.61"
         r="3.25"
         stroke="#191919"
         stroke-width="0.35 px"
         style="fill:none;stroke-width:0.1;stroke-linecap:square;stroke-miterlimit:4;stroke-dasharray:none"
         id="circle17" />
      <title
         id="title17">b'Cut003_cs'</title>
    </g>
  </g>
</svg>
