<?xml version="1.0" encoding="UTF-8" standalone="no"?>
<svg
   width="300mm"
   height="300mm"
   viewBox="0 0 300 300.00001"
   version="1.1"
   id="svg72719"
   sodipodi:docname="tenting-full.svg"
   inkscape:version="1.2.1 (9c6d41e, 2022-07-14)"
   xmlns:inkscape="http://www.inkscape.org/namespaces/inkscape"
   xmlns:sodipodi="http://sodipodi.sourceforge.net/DTD/sodipodi-0.dtd"
   xmlns="http://www.w3.org/2000/svg"
   xmlns:svg="http://www.w3.org/2000/svg">
  <defs
     id="defs72723" />
  <sodipodi:namedview
     id="namedview72721"
     pagecolor="#ffffff"
     bordercolor="#666666"
     borderopacity="1.0"
     inkscape:showpageshadow="2"
     inkscape:pageopacity="0.0"
     inkscape:pagecheckerboard="0"
     inkscape:deskcolor="#d1d1d1"
     inkscape:document-units="mm"
     showgrid="false"
     inkscape:zoom="1.0889068"
     inkscape:cx="322.34164"
     inkscape:cy="472.03305"
     inkscape:window-width="2552"
     inkscape:window-height="1383"
     inkscape:window-x="1920"
     inkscape:window-y="26"
     inkscape:window-maximized="1"
     inkscape:current-layer="svg72719" />
  <g
     id="Cut003_cs"
     transform="matrix(1,0,0,-1,13.207437,180.91714)"
     style="stroke-width:0.1;stroke-dasharray:none;stroke:#ff0000;stroke-opacity:1">
    <path
       id="Cut003_cs_w0000"
       d="m 10.659529,157.50315 c -0.60719,0.51795 -1.6500392,0.005 -1.609829,-0.79253 V 56.57 a 1,1 0 0 1 1,-1 H 12.55 a 3.1,3.1 0 0 0 0,-6.2 h -2.5003 a 1,1 0 0 1 -1,-1 V -45.961722 A 3.5,3.5 0 0 1 11.7332,-49.3652 L 147.75478,-81.995648 A 3.5,3.5 0 0 1 151.743,-80.0714 L 220.37407,67.106764 A 3.5,3.5 0 0 1 220.702,68.5859 v 91.3731 a 3.5,3.5 0 0 1 -3.5,3.5 H 209.3 a 1,1 0 0 1 -1,-1 v -2.499 a 3.1,3.1 0 0 0 -3.098,-3.1 V 91.984685 h 3.49571 c 0.4957,0.04397 1.04397,-0.504296 1,-1 V 78.234919 c 0.044,-0.495704 -0.5043,-1.043973 -1,-1 H 205.202 v -2.89492 A 3.1,3.1 0 0 0 208.3,71.24 a 3.1,3.1 0 1 0 -5.907,1.3146 l -1.47181,0.686043 A 5,5 0 1 0 192.547,77.1455 l -8.517,3.9715 v 78.842 h 18.07 a 3.1,3.1 0 0 0 0,0.001 v 2.499 a 1,1 0 0 1 -1,1 H 15.800384 c -0.796892,0.0402 -1.310368,-1.00223 -0.792776,-1.60951 A 3.1,3.1 0 0 0 10.6595,157.503"
       stroke="#191919"
       stroke-width="0.35 px"
       style="fill:none;fill-opacity:1;fill-rule:evenodd;stroke-width:0.1;stroke-linecap:square;stroke-miterlimit:4;stroke-dasharray:none;stroke:#ff0000;stroke-opacity:1" />
    <circle
       cx="12.55"
       cy="-45.959999"
       r="1.6"
       stroke="#191919"
       stroke-width="0.35 px"
       style="fill:none;stroke-width:0.1;stroke-linecap:square;stroke-miterlimit:4;stroke-dasharray:none;stroke:#ff0000;stroke-opacity:1"
       id="circle72682" />
    <circle
       cx="20.01"
       cy="-40.080002"
       r="5"
       stroke="#191919"
       stroke-width="0.35 px"
       style="fill:none;stroke-width:0.1;stroke-linecap:square;stroke-miterlimit:4;stroke-dasharray:none;stroke:#ff0000;stroke-opacity:1"
       id="circle72684" />
    <circle
       cx="19.27"
       cy="38.75"
       r="5"
       stroke="#191919"
       stroke-width="0.35 px"
       style="fill:none;stroke-width:0.1;stroke-linecap:square;stroke-miterlimit:4;stroke-dasharray:none;stroke:#ff0000;stroke-opacity:1"
       id="circle72686" />
    <circle
       cx="136.66"
       cy="-75.739998"
       r="1.6"
       stroke="#191919"
       stroke-width="0.35 px"
       style="fill:none;stroke-width:0.1;stroke-linecap:square;stroke-miterlimit:4;stroke-dasharray:none;stroke:#ff0000;stroke-opacity:1"
       id="circle72688" />
    <circle
       cx="132.53999"
       cy="-67.18"
       r="5"
       stroke="#191919"
       stroke-width="0.35 px"
       style="fill:none;stroke-width:0.1;stroke-linecap:square;stroke-miterlimit:4;stroke-dasharray:none;stroke:#ff0000;stroke-opacity:1"
       id="circle72690" />
    <circle
       cx="147.166"
       cy="-75.529999"
       r="3.25"
       stroke="#191919"
       stroke-width="0.35 px"
       style="fill:none;stroke-width:0.1;stroke-linecap:square;stroke-miterlimit:4;stroke-dasharray:none;stroke:#ff0000;stroke-opacity:1"
       id="circle72692" />
    <circle
       cx="166.02"
       cy="3.1199999"
       r="5"
       stroke="#191919"
       stroke-width="0.35 px"
       style="fill:none;stroke-width:0.1;stroke-linecap:square;stroke-miterlimit:4;stroke-dasharray:none;stroke:#ff0000;stroke-opacity:1"
       id="circle72694" />
    <circle
       cx="174.95"
       cy="6.3699999"
       r="1.6"
       stroke="#191919"
       stroke-width="0.35 px"
       style="fill:none;stroke-width:0.1;stroke-linecap:square;stroke-miterlimit:4;stroke-dasharray:none;stroke:#ff0000;stroke-opacity:1"
       id="circle72696" />
    <circle
       cx="177.91"
       cy="12.71"
       r="3.0999999"
       stroke="#191919"
       stroke-width="0.35 px"
       style="fill:none;stroke-width:0.1;stroke-linecap:square;stroke-miterlimit:4;stroke-dasharray:none;stroke:#ff0000;stroke-opacity:1"
       id="circle72698" />
    <circle
       cx="174.65601"
       cy="21.790001"
       r="5"
       stroke="#191919"
       stroke-width="0.35 px"
       style="fill:none;stroke-width:0.1;stroke-linecap:square;stroke-miterlimit:4;stroke-dasharray:none;stroke:#ff0000;stroke-opacity:1"
       id="circle72700" />
    <circle
       cx="12.55"
       cy="45.470001"
       r="1.6"
       stroke="#191919"
       stroke-width="0.35 px"
       style="fill:none;stroke-width:0.1;stroke-linecap:square;stroke-miterlimit:4;stroke-dasharray:none;stroke:#ff0000;stroke-opacity:1"
       id="circle72702" />
    <circle
       cx="19.266001"
       cy="59.349998"
       r="5"
       stroke="#191919"
       stroke-width="0.35 px"
       style="fill:none;stroke-width:0.1;stroke-linecap:square;stroke-miterlimit:4;stroke-dasharray:none;stroke:#ff0000;stroke-opacity:1"
       id="circle72704" />
    <circle
       cx="92.639999"
       cy="52.470001"
       r="3.0999999"
       stroke="#191919"
       stroke-width="0.35 px"
       style="fill:none;stroke-width:0.1;stroke-linecap:square;stroke-miterlimit:4;stroke-dasharray:none;stroke:#ff0000;stroke-opacity:1"
       id="circle72706" />
    <circle
       cx="94.695999"
       cy="61.900002"
       r="5"
       stroke="#191919"
       stroke-width="0.35 px"
       style="fill:none;stroke-width:0.1;stroke-linecap:square;stroke-miterlimit:4;stroke-dasharray:none;stroke:#ff0000;stroke-opacity:1"
       id="circle72708" />
    <circle
       cx="19.266001"
       cy="153.39999"
       r="5"
       stroke="#191919"
       stroke-width="0.35 px"
       style="fill:none;stroke-width:0.1;stroke-linecap:square;stroke-miterlimit:4;stroke-dasharray:none;stroke:#ff0000;stroke-opacity:1"
       id="circle72710" />
    <circle
       cx="214.70599"
       cy="69.290001"
       r="3.25"
       stroke="#191919"
       stroke-width="0.35 px"
       style="fill:none;stroke-width:0.1;stroke-linecap:square;stroke-miterlimit:4;stroke-dasharray:none;stroke:#ff0000;stroke-opacity:1"
       id="circle72712" />
    <circle
       cx="214.70599"
       cy="157.61"
       r="3.25"
       stroke="#191919"
       stroke-width="0.35 px"
       style="fill:none;stroke-width:0.1;stroke-linecap:square;stroke-miterlimit:4;stroke-dasharray:none;stroke:#ff0000;stroke-opacity:1"
       id="circle72714" />
    <title
       id="title72716">b'Cut003_cs'</title>
  </g>
</svg>
