<?xml version="1.0" encoding="UTF-8" standalone="no"?>
<svg
   width="300mm"
   height="300mm"
   viewBox="0 0 300 300.00001"
   version="1.1"
   id="svg17"
   sodipodi:docname="full-95.svg"
   inkscape:version="1.3 (0e150ed, 2023-07-21)"
   xmlns:inkscape="http://www.inkscape.org/namespaces/inkscape"
   xmlns:sodipodi="http://sodipodi.sourceforge.net/DTD/sodipodi-0.dtd"
   xmlns="http://www.w3.org/2000/svg"
   xmlns:svg="http://www.w3.org/2000/svg">
  <defs
     id="defs17" />
  <sodipodi:namedview
     id="namedview17"
     pagecolor="#ffffff"
     bordercolor="#666666"
     borderopacity="1.0"
     inkscape:showpageshadow="2"
     inkscape:pageopacity="0.0"
     inkscape:pagecheckerboard="0"
     inkscape:deskcolor="#d1d1d1"
     inkscape:document-units="mm"
     inkscape:zoom="1.2785121"
     inkscape:cx="408.28709"
     inkscape:cy="472.03307"
     inkscape:window-width="2552"
     inkscape:window-height="1383"
     inkscape:window-x="1920"
     inkscape:window-y="26"
     inkscape:window-maximized="1"
     inkscape:current-layer="svg17" />
  <g
     id="Cut002_cs"
     transform="matrix(1,0,0,-1,13.207295,180.91699)"
     style="stroke-width:0.1;stroke-dasharray:none">
    <path
       id="Cut002_cs_w0000"
       d="M 184.03,159.959 V 91.117 81.754075 a 1,1 0 0 1 0.577,-0.906275 l 6.75248,-3.148536 a 1,1 0 0 0 0.40852,-1.461764 5,5 0 1 1 9.153,-2.9969 l 0.92773,-0.432473 A 3.7,3.7 0 1 1 208.9,71.24 a 3.7,3.7 0 0 1 -2.911,3.6149 1,1 0 0 0 -0.787,0.977 v 0.403019 q 0.092,0.908008 1,1 h 2.49571 c 0.4957,-0.04397 1.04397,0.504296 1,1 v 12.749766 c 0.044,0.495704 -0.5043,1.043973 -1,1 H 206.202 q -0.90801,0.09199 -1,1 v 62.383365 a 1,1 0 0 0 0.787,0.97695 3.7,3.7 0 0 1 2.911,3.615 v 2.499 a 1,1 0 0 0 1,1 h 7.302 a 3.5,3.5 0 0 0 3.5,-3.5 V 68.585936 A 3.5,3.5 0 0 0 220.374,67.1068 L 151.74331,-80.071381 A 3.5,3.5 0 0 0 147.755,-81.9956 L 11.733242,-49.36516 A 3.5,3.5 0 0 0 9.0497,-45.9617 V 47.77 a 1,1 0 0 0 1,1 H 12.55 a 3.7,3.7 0 0 1 0,7.4 h -2.5003 a 1,1 0 0 0 -1,1 v 98.81024 c -0.035809,0.75557 0.9112485,1.27902 1.531979,0.84676 a 3.7,3.7 0 0 1 5.101921,5.1 c -0.431932,0.62107 0.09156,1.5678 0.846978,1.532 H 183.03 a 1,1 0 0 0 1,-1 v -2.5"
       stroke="#191919"
       stroke-width="0.35 px"
       style="fill:none;fill-opacity:1;fill-rule:evenodd;stroke-width:0.1;stroke-linecap:square;stroke-miterlimit:4;stroke-dasharray:none" />
    <circle
       cx="12.55"
       cy="-45.959999"
       r="1.6"
       stroke="#191919"
       stroke-width="0.35 px"
       style="fill:none;stroke-width:0.1;stroke-linecap:square;stroke-miterlimit:4;stroke-dasharray:none"
       id="circle1" />
    <circle
       cx="20.01"
       cy="-40.080002"
       r="5"
       stroke="#191919"
       stroke-width="0.35 px"
       style="fill:none;stroke-width:0.1;stroke-linecap:square;stroke-miterlimit:4;stroke-dasharray:none"
       id="circle2" />
    <circle
       cx="19.27"
       cy="38.75"
       r="5"
       stroke="#191919"
       stroke-width="0.35 px"
       style="fill:none;stroke-width:0.1;stroke-linecap:square;stroke-miterlimit:4;stroke-dasharray:none"
       id="circle3" />
    <circle
       cx="136.66"
       cy="-75.739998"
       r="1.6"
       stroke="#191919"
       stroke-width="0.35 px"
       style="fill:none;stroke-width:0.1;stroke-linecap:square;stroke-miterlimit:4;stroke-dasharray:none"
       id="circle4" />
    <circle
       cx="132.53999"
       cy="-67.18"
       r="5"
       stroke="#191919"
       stroke-width="0.35 px"
       style="fill:none;stroke-width:0.1;stroke-linecap:square;stroke-miterlimit:4;stroke-dasharray:none"
       id="circle5" />
    <circle
       cx="147.166"
       cy="-75.529999"
       r="3.25"
       stroke="#191919"
       stroke-width="0.35 px"
       style="fill:none;stroke-width:0.1;stroke-linecap:square;stroke-miterlimit:4;stroke-dasharray:none"
       id="circle6" />
    <circle
       cx="166.02"
       cy="3.1199999"
       r="5"
       stroke="#191919"
       stroke-width="0.35 px"
       style="fill:none;stroke-width:0.1;stroke-linecap:square;stroke-miterlimit:4;stroke-dasharray:none"
       id="circle7" />
    <circle
       cx="174.95"
       cy="6.3699999"
       r="1.6"
       stroke="#191919"
       stroke-width="0.35 px"
       style="fill:none;stroke-width:0.1;stroke-linecap:square;stroke-miterlimit:4;stroke-dasharray:none"
       id="circle8" />
    <circle
       cx="177.91"
       cy="12.71"
       r="3.7"
       stroke="#191919"
       stroke-width="0.35 px"
       style="fill:none;stroke-width:0.1;stroke-linecap:square;stroke-miterlimit:4;stroke-dasharray:none"
       id="circle9" />
    <circle
       cx="174.65601"
       cy="21.790001"
       r="5"
       stroke="#191919"
       stroke-width="0.35 px"
       style="fill:none;stroke-width:0.1;stroke-linecap:square;stroke-miterlimit:4;stroke-dasharray:none"
       id="circle10" />
    <circle
       cx="12.55"
       cy="45.470001"
       r="1.6"
       stroke="#191919"
       stroke-width="0.35 px"
       style="fill:none;stroke-width:0.1;stroke-linecap:square;stroke-miterlimit:4;stroke-dasharray:none"
       id="circle11" />
    <circle
       cx="19.266001"
       cy="59.349998"
       r="5"
       stroke="#191919"
       stroke-width="0.35 px"
       style="fill:none;stroke-width:0.1;stroke-linecap:square;stroke-miterlimit:4;stroke-dasharray:none"
       id="circle12" />
    <circle
       cx="92.639999"
       cy="52.470001"
       r="3.7"
       stroke="#191919"
       stroke-width="0.35 px"
       style="fill:none;stroke-width:0.1;stroke-linecap:square;stroke-miterlimit:4;stroke-dasharray:none"
       id="circle13" />
    <circle
       cx="94.695999"
       cy="61.900002"
       r="5"
       stroke="#191919"
       stroke-width="0.35 px"
       style="fill:none;stroke-width:0.1;stroke-linecap:square;stroke-miterlimit:4;stroke-dasharray:none"
       id="circle14" />
    <circle
       cx="19.266001"
       cy="153.39999"
       r="5"
       stroke="#191919"
       stroke-width="0.35 px"
       style="fill:none;stroke-width:0.1;stroke-linecap:square;stroke-miterlimit:4;stroke-dasharray:none"
       id="circle15" />
    <circle
       cx="214.70599"
       cy="69.290001"
       r="3.25"
       stroke="#191919"
       stroke-width="0.35 px"
       style="fill:none;stroke-width:0.1;stroke-linecap:square;stroke-miterlimit:4;stroke-dasharray:none"
       id="circle16" />
    <circle
       cx="214.70599"
       cy="157.61"
       r="3.25"
       stroke="#191919"
       stroke-width="0.35 px"
       style="fill:none;stroke-width:0.1;stroke-linecap:square;stroke-miterlimit:4;stroke-dasharray:none"
       id="circle17" />
    <title
       id="title17">b'Cut002_cs'</title>
  </g>
</svg>
