<?xml version="1.0" encoding="UTF-8" standalone="no"?>
<svg
   width="300mm"
   height="300mm"
   viewBox="0 0 300 299.99999"
   version="1.1"
   id="svg7"
   sodipodi:docname="half.svg"
   inkscape:version="1.3 (0e150ed, 2023-07-21)"
   xmlns:inkscape="http://www.inkscape.org/namespaces/inkscape"
   xmlns:sodipodi="http://sodipodi.sourceforge.net/DTD/sodipodi-0.dtd"
   xmlns="http://www.w3.org/2000/svg"
   xmlns:svg="http://www.w3.org/2000/svg">
  <defs
     id="defs7" />
  <sodipodi:namedview
     id="namedview7"
     pagecolor="#ffffff"
     bordercolor="#666666"
     borderopacity="1.0"
     inkscape:showpageshadow="2"
     inkscape:pageopacity="0.0"
     inkscape:pagecheckerboard="0"
     inkscape:deskcolor="#d1d1d1"
     inkscape:document-units="mm"
     inkscape:zoom="1.3554842"
     inkscape:cx="560.3164"
     inkscape:cy="221.692"
     inkscape:window-width="2552"
     inkscape:window-height="1383"
     inkscape:window-x="1920"
     inkscape:window-y="26"
     inkscape:window-maximized="1"
     inkscape:current-layer="svg7" />
  <g
     id="Fillet003_cs"
     transform="matrix(1,0,0,-1,13.207295,180.91699)"
     style="stroke-width:0.1;stroke-dasharray:none">
    <path
       id="Fillet003_cs_w0000"
       d="M 184.03,159.959 V 91.117 81.754075 a 1,1 0 0 1 0.577,-0.906275 l 6.75248,-3.148536 a 1,1 0 0 0 0.40852,-1.461764 5,5 0 1 1 9.153,-2.9969 l 0.92773,-0.432473 A 3.7,3.7 0 1 1 208.9,71.24 a 3.7,3.7 0 0 1 -2.911,3.6149 1,1 0 0 0 -0.787,0.977 v 0.403019 q 0.092,0.908008 1,1 h 2.49571 c 0.4957,-0.04397 1.04397,0.504296 1,1 v 12.749766 c 0.044,0.495704 -0.5043,1.043973 -1,1 H 206.202 q -0.90801,0.09199 -1,1 v 62.383365 a 1,1 0 0 0 0.787,0.97695 3.7,3.7 0 0 1 2.911,3.615 v 2.499 a 1,1 0 0 0 1,1 h 7.302 a 3.5,3.5 0 0 0 3.5,-3.5 V 68.585947 A 3.5,3.5 0 0 0 220.374,67.1068 L 191.95418,6.1614421 A 3.5,3.5 0 0 0 187.303,4.46856 l -6.61237,3.0833794 A 1,1 0 0 0 180.207,8.88086 l 1.05634,2.265452 A 3.7,3.7 0 1 1 174.557,14.2737 l -1.05673,-2.26545 A 1,1 0 0 0 172.171,11.5246 L 96.026728,47.031483 A 1,1 0 0 0 95.4731,48.1542 l 0.779195,3.514973 A 3.7,3.7 0 1 1 89.0277,53.2708 L 88.248832,49.75756 A 1,1 0 0 0 87.2725,48.974 H 16.53246 c -0.755042,-0.03577 -1.27865,0.910148 -0.847332,1.531064 A 3.7,3.7 0 0 1 10.5817,55.603 c -0.6207494,-0.432264 -1.5678104,0.09119 -1.532,0.846761 v 99.530479 c -0.035809,0.75557 0.9112487,1.27902 1.531979,0.84676 a 3.7,3.7 0 0 1 5.101921,5.1 c -0.431932,0.62107 0.09156,1.5678 0.846978,1.532 H 183.03 a 1,1 0 0 0 1,-1 v -2.5"
       stroke="#191919"
       stroke-width="0.35 px"
       style="fill:none;fill-opacity:1;fill-rule:evenodd;stroke-width:0.1;stroke-linecap:square;stroke-miterlimit:4;stroke-dasharray:none" />
    <circle
       cx="19.266001"
       cy="59.349998"
       r="5"
       stroke="#191919"
       stroke-width="0.35 px"
       style="fill:none;stroke-width:0.1;stroke-linecap:square;stroke-miterlimit:4;stroke-dasharray:none"
       id="circle1" />
    <circle
       cx="94.695999"
       cy="61.900002"
       r="5"
       stroke="#191919"
       stroke-width="0.35 px"
       style="fill:none;stroke-width:0.1;stroke-linecap:square;stroke-miterlimit:4;stroke-dasharray:none"
       id="circle2" />
    <circle
       cx="187.576"
       cy="11.12"
       r="3.25"
       stroke="#191919"
       stroke-width="0.35 px"
       style="fill:none;stroke-width:0.1;stroke-linecap:square;stroke-miterlimit:4;stroke-dasharray:none"
       id="circle3" />
    <circle
       cx="174.65601"
       cy="21.790001"
       r="5"
       stroke="#191919"
       stroke-width="0.35 px"
       style="fill:none;stroke-width:0.1;stroke-linecap:square;stroke-miterlimit:4;stroke-dasharray:none"
       id="circle4" />
    <circle
       cx="214.70599"
       cy="69.290001"
       r="3.25"
       stroke="#191919"
       stroke-width="0.35 px"
       style="fill:none;stroke-width:0.1;stroke-linecap:square;stroke-miterlimit:4;stroke-dasharray:none"
       id="circle5" />
    <circle
       cx="19.266001"
       cy="153.39999"
       r="5"
       stroke="#191919"
       stroke-width="0.35 px"
       style="fill:none;stroke-width:0.1;stroke-linecap:square;stroke-miterlimit:4;stroke-dasharray:none"
       id="circle6" />
    <circle
       cx="214.70599"
       cy="157.61"
       r="3.25"
       stroke="#191919"
       stroke-width="0.35 px"
       style="fill:none;stroke-width:0.1;stroke-linecap:square;stroke-miterlimit:4;stroke-dasharray:none"
       id="circle7" />
    <title
       id="title7">b'Fillet003_cs'</title>
  </g>
</svg>
