<?xml version="1.0" encoding="UTF-8" standalone="no"?>
<!-- Created with Inkscape (http://www.inkscape.org/) -->

<svg
   width="300mm"
   height="300mm"
   viewBox="0 0 300 300"
   version="1.1"
   id="svg85549"
   inkscape:version="1.2.1 (9c6d41e, 2022-07-14)"
   sodipodi:docname="top.svg"
   xmlns:inkscape="http://www.inkscape.org/namespaces/inkscape"
   xmlns:sodipodi="http://sodipodi.sourceforge.net/DTD/sodipodi-0.dtd"
   xmlns="http://www.w3.org/2000/svg"
   xmlns:svg="http://www.w3.org/2000/svg">
  <sodipodi:namedview
     id="namedview85551"
     pagecolor="#ffffff"
     bordercolor="#666666"
     borderopacity="1.0"
     inkscape:showpageshadow="2"
     inkscape:pageopacity="0.0"
     inkscape:pagecheckerboard="0"
     inkscape:deskcolor="#d1d1d1"
     inkscape:document-units="mm"
     showgrid="false"
     inkscape:zoom="0.89263468"
     inkscape:cx="398.25923"
     inkscape:cy="561.25984"
     inkscape:window-width="2552"
     inkscape:window-height="1383"
     inkscape:window-x="1920"
     inkscape:window-y="26"
     inkscape:window-maximized="1"
     inkscape:current-layer="layer2" />
  <defs
     id="defs85546" />
  <g
     inkscape:label="Layer 1"
     inkscape:groupmode="layer"
     id="layer1">
    <g
       inkscape:groupmode="layer"
       id="layer2"
       inkscape:label="layer4-lite-nonsolar"
       style="display:inline"
       sodipodi:insensitive="true">
      <path
         id="path40280"
         fill="none"
         stroke-width="0.1"
         stroke="#ff0000"
         d="m 25.757538,17.457544 c -1.932997,0 -3.49953,1.567003 -3.499538,3.5 l -4.62e-4,107.484916 c -8e-6,1.933 1.567003,3.5 3.5,3.5 h 78.534802 c 0.51108,0 1.01596,0.11193 1.47916,0.32792 l 83.86382,39.10634 c 1.75189,0.81692 3.83432,0.059 4.65124,-1.69291 L 221.58132,111.15 c 0.21599,-0.4632 0.32793,-0.96808 0.32793,-1.47916 V 20.957544 c 0,-1.932993 -1.567,-3.499994 -3.49999,-3.5 H 25.757538"
         sodipodi:nodetypes="csssccscccscc" />
      <path
         id="path40282"
         fill="none"
         stroke-width="0.1"
         stroke="#ff0000"
         d="m 171.95,27.532544 a 0.742462,0.742462 0 0 1 0.74246,0.742462 v 75.400004 a 0.742462,0.742462 0 0 1 -0.74246,0.74246 h -14.51967 a 0.742462,0.742462 0 0 0 -0.31378,1.41536 l 12.93271,6.03063 a 0.742462,0.742462 0 0 0 0.98668,-0.35913 l 7.42332,-15.919364 a 0.742462,0.742462 0 0 1 0.98668,-0.359119 l 33.80528,15.763663 a 0.742462,0.742462 0 0 1 0.35912,0.98668 l -23.81454,51.07043 a 0.742462,0.742462 0 0 1 -0.98666,0.35912 L 137.73868,139.5912 a 0.742462,0.742462 0 0 1 -0.35912,-0.98667 l 15.44916,-33.13082 a 0.742462,0.742462 0 0 0 -0.6729,-1.05624 h -16.8209 a 0.742462,0.742462 0 0 0 -0.74246,0.74246 V 121.125 A 0.742462,0.742462 0 0 1 133.85,121.86746 H 115.6 a 0.742462,0.742462 0 0 1 -0.74246,-0.74246 v -0.11508 a 0.742462,0.742462 0 0 0 -0.74246,-0.74246 H 97.234926 a 0.742462,0.742462 0 0 0 -0.742463,0.74246 v 0.11508 a 0.742462,0.742462 0 0 1 -0.742464,0.74246 H 78.184926 a 0.742462,0.742462 0 0 0 -0.742463,0.74246 v 1.71508 a 0.742462,0.742462 0 0 1 -0.742464,0.74246 H 39.4 A 0.742462,0.742462 0 0 1 38.657538,124.325 v -17.56507 a 0.742462,0.742462 0 0 0 -0.742462,-0.74246 H 29.875 a 0.742462,0.742462 0 0 1 -0.742462,-0.74246 V 29.875006 A 0.742462,0.742462 0 0 1 29.875,29.132544 h 46.140075 a 0.742462,0.742462 0 0 0 0.742463,-0.742462 v -1.715076 a 0.742462,0.742462 0 0 1 0.742464,-0.742462 h 17.565076 a 0.742462,0.742462 0 0 0 0.74246,-0.742462 v -0.115076 a 0.742462,0.742462 0 0 1 0.742464,-0.742462 H 114.8 a 0.742462,0.742462 0 0 1 0.74246,0.742462 v 0.115076 a 0.742462,0.742462 0 0 0 0.74246,0.742462 H 133.85 a 0.742462,0.742462 0 0 1 0.74246,0.742462 v 0.115076 a 0.742462,0.742462 0 0 0 0.74246,0.742462 H 171.95" />
      <path
         id="path40286"
         fill="none"
         stroke-width="0.1"
         stroke="#ff0000"
         d="m 24.207538,20.957544 a 1.55,1.55 0 0 1 3.1,0 1.55,1.55 0 0 1 -3.1,0" />
      <path
         id="path40288"
         fill="none"
         stroke-width="0.1"
         stroke="#ff0000"
         d="m 24.207538,128.44246 a 1.55,1.55 0 0 1 3.1,0 1.55,1.55 0 0 1 -3.1,0" />
      <path
         id="path40290"
         fill="none"
         stroke-width="0.1"
         stroke="#ff0000"
         d="m 104.2942,128.44246 a 1.5500006,1.5500006 0 0 1 3.1,0 1.5500006,1.5500006 0 0 1 -3.1,0" />
      <path
         id="path40292"
         fill="none"
         stroke-width="0.1"
         stroke="#ff0000"
         d="m 189.56448,168.20465 a 1.5500006,1.5500006 0 0 1 3.1,0 1.5500006,1.5500006 0 0 1 -3.1,0" />
      <path
         id="path40294"
         fill="none"
         stroke-width="0.1"
         stroke="#ff0000"
         d="m 216.85925,109.67084 a 1.55,1.55 0 0 1 3.1,0 1.55,1.55 0 0 1 -3.1,0" />
      <path
         id="path40296"
         fill="none"
         stroke-width="0.1"
         stroke="#ff0000"
         d="m 216.85925,20.957544 a 1.55,1.55 0 0 1 3.1,0 1.55,1.55 0 0 1 -3.1,0" />
    </g>
  </g>
</svg>
