<?xml version="1.0" encoding="UTF-8" standalone="no"?>
<!-- Created with Inkscape (http://www.inkscape.org/) -->

<svg
   width="300mm"
   height="300mm"
   viewBox="0 0 300 300"
   version="1.1"
   id="svg85925"
   inkscape:version="1.2.1 (9c6d41e, 2022-07-14)"
   sodipodi:docname="wrist-rest.svg"
   xmlns:inkscape="http://www.inkscape.org/namespaces/inkscape"
   xmlns:sodipodi="http://sodipodi.sourceforge.net/DTD/sodipodi-0.dtd"
   xmlns="http://www.w3.org/2000/svg"
   xmlns:svg="http://www.w3.org/2000/svg">
  <sodipodi:namedview
     id="namedview85927"
     pagecolor="#ffffff"
     bordercolor="#666666"
     borderopacity="1.0"
     inkscape:showpageshadow="2"
     inkscape:pageopacity="0.0"
     inkscape:pagecheckerboard="0"
     inkscape:deskcolor="#d1d1d1"
     inkscape:document-units="mm"
     showgrid="false"
     inkscape:zoom="0.89263468"
     inkscape:cx="398.25923"
     inkscape:cy="561.25984"
     inkscape:window-width="2552"
     inkscape:window-height="1383"
     inkscape:window-x="1920"
     inkscape:window-y="26"
     inkscape:window-maximized="1"
     inkscape:current-layer="layer1" />
  <defs
     id="defs85922" />
  <g
     inkscape:label="Layer 1"
     inkscape:groupmode="layer"
     id="layer1">
    <path
       d="m 24.941082,230.28151 a 3.5000001,3.5000001 0 0 1 -2.683544,-3.40344 v -91.43561 a 3.5000001,3.5000001 0 0 1 3.5,-3.5 h 78.534802 a 3.5000001,3.5000001 0 0 1 1.47916,0.32792 l 83.86382,39.10634 a 3.5000001,3.5000001 0 0 1 1.69291,4.65124 l -38.28525,82.10299 a 3.5000001,3.5000001 0 0 1 -3.98854,1.92427 L 24.941082,230.28151"
       stroke="#ff0000"
       stroke-width="0.1"
       fill="none"
       id="path42244"
       style="display:inline" />
    <path
       d="m 24.257538,226.87807 a 1.5,1.5 0 0 1 3,0 1.5,1.5 0 0 1 -3,0"
       stroke="#ff0000"
       stroke-width="0.1"
       fill="none"
       id="path42246"
       style="display:inline" />
    <path
       d="m 24.257538,135.44246 a 1.5,1.5 0 0 1 3,0 1.5,1.5 0 0 1 -3,0"
       stroke="#ff0000"
       stroke-width="0.1"
       fill="none"
       id="path42248"
       style="display:inline" />
    <path
       d="m 186.65615,174.5488 a 1.5,1.5 0 0 1 3,0 1.5,1.5 0 0 1 -3,0"
       stroke="#ff0000"
       stroke-width="0.1"
       fill="none"
       id="path42250"
       style="display:inline" />
    <path
       d="m 148.3709,256.65178 a 1.5,1.5 0 0 1 3,0 1.5,1.5 0 0 1 -3,0"
       stroke="#ff0000"
       stroke-width="0.1"
       fill="none"
       id="path42252"
       style="display:inline" />
  </g>
</svg>
